<svg xmlns="http://www.w3.org/2000/svg" width="32" height="32">
    <path style="stroke:none;fill-rule:evenodd;fill:#622ddb;fill-opacity:1" d="M16.688 6.02c-.543.043-1.481.19-2.047.324-1.04.25-2.227.773-3.172 1.398-.059.04-.137.09-.168.11-.031.023-.192.136-.352.261a11.09 11.09 0 0 0-2.406 2.543c-.207.309-.59.969-.707 1.219-.328.7-.535 1.277-.715 1.965-.105.406-.105.433-.043.379.027-.02.047-.051.047-.067 0-.03.055-.12.547-.87.183-.286.387-.587.45-.673.066-.086.218-.296.347-.468a5.29 5.29 0 0 1 .25-.329c.008-.007.066-.078.125-.156.058-.078.117-.148.125-.156l.219-.25a20.358 20.358 0 0 1 1.296-1.3 10.72 10.72 0 0 1 1.141-.856c.395-.254.535-.344.547-.344.004 0 .137-.07.285-.16a10.15 10.15 0 0 1 2.387-.969 16.888 16.888 0 0 1 1.39-.258c.496-.066 1.664-.066 2.114-.004.785.114 1.265.23 1.945.48.543.204 1.34.59 1.754.856.281.176.672.434.719.47.015.01.066.05.109.085l.078.059-1.25 1.254a76.298 76.298 0 0 1-1.265 1.25c-.012 0-.047-.024-.079-.055a4.187 4.187 0 0 0-.468-.313c-.453-.28-1.235-.57-1.891-.699-.316-.062-.457-.074-1.156-.074-.867 0-1.059.023-1.793.207-1.02.254-1.719.574-2.551 1.164-.492.352-1.05.867-1.375 1.27-.078.093-.148.18-.16.187-.027.023-.317.46-.453.688-.918 1.519-1.188 3.445-.73 5.25.198.777.374 1.218.769 1.93.386.695 1.14 1.573 1.87 2.179.563.473 1.462.996 2.142 1.258.773.297 1.374.445 2.136.523 1.832.195 3.688-.285 5.301-1.371.129-.086.25-.168.266-.184l.25-.187c.12-.09.265-.203.328-.258.234-.203.465-.418.718-.66.145-.14.352-.336.454-.43l.187-.175-3.652-3.653-.215.2c-.785.726-1.68 1.21-2.617 1.41-.328.07-1.344.082-1.64.015-.61-.129-.977-.25-1.392-.457-.253-.129-.636-.363-.687-.418a1.142 1.142 0 0 0-.129-.105c-.14-.106-.144-.11-.45-.399l-.241-.234.015.117c.024.148.262.64.465.95.164.253.457.605.66.784.207.192.793.602.852.602.008 0 .098.043.203.09.91.441 2.238.5 3.297.144.21-.07.953-.425.953-.457 0-.011.027-.03.063-.043.07-.023.554-.379.695-.511l.086-.078 1.984 1.984-.094.082c-.363.312-.46.394-.656.55-.121.098-.234.188-.254.208-.222.183-.91.554-1.336.722a8.379 8.379 0 0 1-1.707.47c-.336.05-1.554.05-1.875 0-1.316-.216-2.379-.661-3.406-1.419-.195-.148-.8-.746-.988-.976-.16-.2-.45-.63-.45-.668 0-.016-.011-.035-.023-.04-.031-.015-.172-.269-.34-.62a6.454 6.454 0 0 1-.594-2.067c-.09-.781.004-1.7.25-2.45.102-.296.352-.82.512-1.07.063-.097.133-.21.153-.25.074-.136.539-.683.75-.882a6.444 6.444 0 0 1 2.48-1.469c1.266-.414 2.473-.414 3.703.004.336.117.871.394 1.258.656.176.117.633.492.68.55.023.032.523-.452 2.086-2.015a567.056 567.056 0 0 0 2.074-2.078c.023-.023-.047-.094-.363-.367-.13-.113-.243-.21-.25-.219-.008-.011-.137-.113-.282-.23-.144-.117-.289-.23-.316-.254-.11-.086-.727-.492-.996-.652-.407-.243-1.309-.684-1.672-.817-1.309-.488-2.985-.766-4.11-.683"/>
    <path style="stroke:none;fill-rule:evenodd;fill:#040404;fill-opacity:1" d="M0 16v16l32.016-.016L32.03 0H0v16m.016.016c0 8.8.004 12.394.007 7.988.004-4.406.004-11.606 0-16-.003-4.395-.007-.79-.007 8.012M16.688 6.02c-.543.043-1.481.19-2.047.324-1.04.25-2.227.773-3.172 1.398-.059.04-.137.09-.168.11-.031.023-.192.136-.352.261a11.09 11.09 0 0 0-2.406 2.543c-.207.309-.59.969-.707 1.219-.328.7-.535 1.277-.715 1.965-.105.406-.105.433-.043.379.027-.02.047-.051.047-.067 0-.03.055-.12.547-.87.183-.286.387-.587.45-.673.066-.086.218-.296.347-.468a5.29 5.29 0 0 1 .25-.329c.008-.007.066-.078.125-.156.058-.078.117-.148.125-.156l.219-.25a20.358 20.358 0 0 1 1.296-1.3 10.72 10.72 0 0 1 1.141-.856c.395-.254.535-.344.547-.344.004 0 .137-.07.285-.16a10.15 10.15 0 0 1 2.387-.969 16.888 16.888 0 0 1 1.39-.258c.496-.066 1.664-.066 2.114-.004.785.114 1.265.23 1.945.48.543.204 1.34.59 1.754.856.281.176.672.434.719.47.015.01.066.05.109.085l.078.059-1.25 1.254a76.298 76.298 0 0 1-1.265 1.25c-.012 0-.047-.024-.079-.055a4.187 4.187 0 0 0-.468-.313c-.453-.28-1.235-.57-1.891-.699-.316-.062-.457-.074-1.156-.074-.867 0-1.059.023-1.793.207-1.02.254-1.719.574-2.551 1.164-.492.352-1.05.867-1.375 1.27-.078.093-.148.18-.16.187-.027.023-.317.46-.453.688-.918 1.519-1.188 3.445-.73 5.25.198.777.374 1.218.769 1.93.386.695 1.14 1.573 1.87 2.179.563.473 1.462.996 2.142 1.258.773.297 1.374.445 2.136.523 1.832.195 3.688-.285 5.301-1.371.129-.086.25-.168.266-.184l.25-.187c.12-.09.265-.203.328-.258.234-.203.465-.418.718-.66.145-.14.352-.336.454-.43l.187-.175-3.652-3.653-.215.2c-.785.726-1.68 1.21-2.617 1.41-.328.07-1.344.082-1.64.015-.61-.129-.977-.25-1.392-.457-.253-.129-.636-.363-.687-.418a1.142 1.142 0 0 0-.129-.105c-.14-.106-.144-.11-.45-.399l-.241-.234.015.117c.024.148.262.64.465.95.164.253.457.605.66.784.207.192.793.602.852.602.008 0 .098.043.203.09.91.441 2.238.5 3.297.144.21-.07.953-.425.953-.457 0-.011.027-.03.063-.043.07-.023.554-.379.695-.511l.086-.078 1.984 1.984-.094.082c-.363.312-.46.394-.656.55-.121.098-.234.188-.254.208-.222.183-.91.554-1.336.722a8.379 8.379 0 0 1-1.707.47c-.336.05-1.554.05-1.875 0-1.316-.216-2.379-.661-3.406-1.419-.195-.148-.8-.746-.988-.976-.16-.2-.45-.63-.45-.668 0-.016-.011-.035-.023-.04-.031-.015-.172-.269-.34-.62a6.454 6.454 0 0 1-.594-2.067c-.09-.781.004-1.7.25-2.45.102-.296.352-.82.512-1.07.063-.097.133-.21.153-.25.074-.136.539-.683.75-.882a6.444 6.444 0 0 1 2.48-1.469c1.266-.414 2.473-.414 3.703.004.336.117.871.394 1.258.656.176.117.633.492.68.55.023.032.523-.452 2.086-2.015a567.056 567.056 0 0 0 2.074-2.078c.023-.023-.047-.094-.363-.367-.13-.113-.243-.21-.25-.219-.008-.011-.137-.113-.282-.23-.144-.117-.289-.23-.316-.254-.11-.086-.727-.492-.996-.652-.407-.243-1.309-.684-1.672-.817-1.309-.488-2.985-.766-4.11-.683"/>
</svg>
