<svg xmlns="http://www.w3.org/2000/svg" width="1706.666667" height="1706.666667" version="1.0" viewBox="0 0 1280 1280">
  <path fill="#FFFFFF" d="M676 153.6c-89.4 7.7-163.4 30.1-231.5 70.2-40.1 23.6-62.5 40-95.5 69.8-41.6 37.7-72.3 75.6-101.5 125.9-17 29-27 51.2-35 76.9-8.1 26.2-21.7 85.8-19.9 87.5.4.3.9.1 1.1-.6 1.1-3.1 18.3-30.8 30.5-49.3 33-50 55.6-80.1 85.7-114.5 13.9-15.8 56.1-58 73.1-73.1 23.8-21.1 67-52.1 95-68.1 59-33.7 120.5-53.4 189-60.5 16.1-1.7 66.5-1.6 83.5 0 41.5 4.1 86.5 15 124.4 30.2 28.7 11.4 71.9 35.5 98 54.8 10.5 7.7 23.1 18.3 23.1 19.5 0 .5-26.7 27.4-59.2 59.7l-59.3 58.8-7-4.7C836 413 789 393.2 750.3 385.5c-6.8-1.4-17.6-3.2-24.1-4-13-1.7-46.7-3.5-55.2-3-3 .2-11.1.6-18 1-42.4 2-87.6 14.3-129.9 35.4-62.7 31.3-119.3 83.7-152.9 141.7-14.3 24.7-28.3 58.6-35.6 86.4-8.6 32.8-13.5 74.4-12.1 103 3.2 63.2 14 109.2 37.1 157.6 26.9 56.7 72.8 108.7 131 148.6 37.8 25.9 90.7 50 136.4 62.2 61.8 16.5 132.7 18.7 195 6.1 82.1-16.6 160-58.7 228-123.2l9.4-9-3.1-3.9c-4.4-5.4-59.8-60.2-125.8-124.4-9.9-9.6-25-24.3-33.5-32.6s-16.5-15.6-17.7-16.2c-1.9-1-3.4-.2-14.3 8.3-28.7 22.2-52 35.1-80.8 44.4-37.8 12.3-78.2 13.5-122.2 3.6-37.3-8.5-62.4-19.5-135-59.5-22.2-12.3-25-13.7-25-12.6 0 1.2 10 15.6 21.8 31.6 24.5 33.1 64.2 67 96.6 82.5 46.7 22.3 95.3 29.2 145.9 20.5 35.4-6 68.1-20.2 95.1-41.3l8.9-6.9 34.5 34.3c48.2 48 62.9 62.9 64.3 65.7.9 1.7 1 2.8.3 4-1.2 1.9-30.8 22.1-43 29.4-44.3 26.2-92.6 43.3-143.9 50.8-12 1.7-18.4 2.3-41.5 3.5-13 .7-43.1-1.3-60.4-4-60.6-9.5-110.7-30-161.1-66-74.2-52.9-122.4-133.2-133.7-222.5-1.7-14-1.7-62 0-76 5.9-46.2 21.3-89.9 43.9-124.5 21.1-32.1 50.1-61.4 82.8-83.2 37.6-25.1 82.3-42.4 124-47.9 18.3-2.4 55.7-2.9 70.5-1 41.3 5.4 76.6 17.6 117.5 40.5 15.9 9 31 19 43.2 28.8 5.1 4 9.9 7.6 10.6 7.9.8.3 5.8-3.6 11.8-9.2 20.1-18.8 196.9-194.1 196.9-195.2 0-1.2-22.8-24.1-35-35.2-51.4-47.1-112.6-82.2-181-103.9-32.8-10.4-70.1-17.6-117.2-22.7-13.4-1.5-67.3-2.7-77.8-1.8z"/>
</svg>
